<?xml version="1.0" encoding="utf-8"?>
<!-- Svg Vector Icons : http://www.onlinewebfonts.com/icon -->
<!DOCTYPE svg PUBLIC "-//W3C//DTD SVG 1.1//EN" "http://www.w3.org/Graphics/SVG/1.1/DTD/svg11.dtd">
<svg version="1.1" xmlns="http://www.w3.org/2000/svg" xmlns:xlink="http://www.w3.org/1999/xlink" x="0px" y="0px" viewBox="0 0 1000 1000" enable-background="new 0 0 1000 1000" xml:space="preserve">
<metadata> Svg Vector Icons : http://www.onlinewebfonts.com/icon </metadata>
<g><g transform="matrix(1 0 0 -1 0 1920)"><path d="M200.5,1105.3c-20.6,0-40.6,3.2-60.1,9.6c-19.4,6.4-36.9,15.5-52.5,27.3s-29.2,25.4-41,41c-11.8,15.6-20.9,33.1-27.3,52.5c-6.4,19.4-9.6,39.5-9.6,60.1c0,25.9,5,50.5,15.1,73.9c10.1,23.4,23.6,43.7,40.7,60.7c17,17,37.3,30.6,60.7,40.7c23.4,10.1,48.1,15.1,73.9,15.1c10.7,0,22.1-1.1,34.1-3.2l46.4,129H232c-8.6,0-16,3-22.2,9.1c-6.2,6.1-9.3,13.5-9.3,22.2c0,8.7,3.1,16.2,9.3,22.4c6.2,6.2,13.6,9.3,22.2,9.3h84.2c12,0,21.6-3.1,28.9-9.3c7.3-6.2,10.9-14.2,10.9-24.1c0-4.2-0.6-8.5-1.9-12.9l-17.3-48.2h279.1l38.5,94.6h-43.8c-5.7,0-10.9,0.8-15.8,2.4c-4.8,1.6-8.7,3.7-11.5,6.3c-2.8,2.6-4.3,5.3-4.3,8c0,4.4,3,8.8,9.1,13.1c6.1,4.3,13.5,7.2,22.1,8.7l126.8,20.8c1.7,0.2,3.4,0.3,5,0.3c7.4,0,13.6-2.6,18.6-7.7c5-5.1,7.6-11.6,7.6-19.4c0-8.6-3.1-16.2-9.3-22.7c-6.2-6.5-13.6-9.8-22.2-9.8h-16.7c-0.4-4.2-0.7-6.6-0.9-7.3l-39.1-105.3l53-88.6c21.9,8.2,44.1,12.3,66.8,12.3c25.9,0,50.5-5,73.9-15.1c23.4-10.1,43.7-23.6,60.7-40.7c17-17,30.6-37.3,40.7-60.7c10.1-23.4,15.1-48.1,15.1-73.9s-5-50.5-15.1-73.9s-23.6-43.7-40.7-60.7c-17-17-37.3-30.6-60.7-40.7c-23.4-10.1-48.1-15.1-73.9-15.1c-30.9,0-59.9,7-86.9,21c-27,14-49.3,33.2-67,57.5c-17.7,24.4-28.9,51.5-33.7,81.4h-64.6c-8.6,0-16.1,3-22.4,9.1l-219.5,219.8l-11.7-32.5c29.4-16.6,53-39.7,70.6-69.2c17.7-29.5,26.5-61.8,26.5-96.6c0-25.9-5-50.5-15.1-73.9c-10.1-23.4-23.6-43.7-40.7-60.7c-17-17-37.3-30.6-60.7-40.7C251,1110.4,226.3,1105.3,200.5,1105.3z M534.7,1353.8l60.9,163.6H371L534.7,1353.8z M592.4,1328.2h19.9c2.5,14.9,6.8,29.4,12.8,43.4c6,14,13.5,26.9,22.4,38.6c8.9,11.8,19.1,22.4,30.4,31.8l-26.5,44.8L592.4,1328.2z M200.5,1168.4c23.1,0,44.5,5.7,64,17c19.5,11.4,35,26.8,46.4,46.4c11.4,19.5,17,40.9,17,64c0,21.4-5,41.4-15.1,59.9c-10.1,18.5-23.6,33.6-40.7,45.4l-41.9-116c-1.5-4.2-3.7-7.9-6.8-11c-3-3.2-6.6-5.6-10.6-7.3c-4-1.7-8.1-2.5-12.3-2.5c-3.8,0-7.4,0.6-10.7,1.9c-6.3,2.3-11.4,6.2-15.1,11.7c-3.8,5.5-5.7,11.5-5.7,18c0,3.6,0.6,7.1,1.9,10.7l41.6,115.4c-0.4,0-2.1,0.2-5,0.6c-2.9,0.4-5.3,0.6-6.9,0.6c-13.9,0-27.3-2.2-40.2-6.5c-12.9-4.3-24.6-10.4-35-18.3s-19.5-17-27.4-27.4c-7.9-10.4-14-22.1-18.3-35c-4.3-12.9-6.5-26.3-6.5-40.2c0-23.1,5.7-44.5,17-64c11.4-19.5,26.8-35,46.4-46.4C156,1174.1,177.3,1168.4,200.5,1168.4z M799.5,1168.4c23.1,0,44.5,5.7,64,17c19.5,11.4,35,26.8,46.4,46.4s17,40.8,17,63.9c0,23-5.7,44.4-17,64s-26.8,35.2-46.4,46.5c-19.6,11.3-40.9,17-64,17c-10.1,0-21.3-1.8-33.7-5.4l59-98.7c0.8-1.7,2.1-5.3,3.8-10.7c1.7-5.5,2.5-9.4,2.5-11.7c0-8.8-3.1-16.3-9.3-22.4c-6.2-6.1-13.6-9.1-22.2-9.1H676.3c3.4-13.7,8.9-26.5,16.7-38.5c7.8-12,17-22.2,27.7-30.7c10.7-8.5,22.9-15.2,36.4-20.2S784.8,1168.4,799.5,1168.4z M676.9,1328.2h69.1l-35,58.6C694.3,1370.7,683,1351.2,676.9,1328.2z"/></g></g>
</svg>