<?xml version="1.0" encoding="utf-8"?>
<!-- Svg Vector Icons : http://www.onlinewebfonts.com/icon -->
<!DOCTYPE svg PUBLIC "-//W3C//DTD SVG 1.1//EN" "http://www.w3.org/Graphics/SVG/1.1/DTD/svg11.dtd">
<svg version="1.1" xmlns="http://www.w3.org/2000/svg" xmlns:xlink="http://www.w3.org/1999/xlink" x="0px" y="0px" viewBox="0 0 1000 1000" enable-background="new 0 0 1000 1000" xml:space="preserve">
<metadata> Svg Vector Icons : http://www.onlinewebfonts.com/icon </metadata>
<g><path d="M794.1,833.2h-47L872.4,990H715.7l-94.1-156.8H378.5l-94,156.8H127.6L253,833.2h-47.1c-43.2,0-78.4-35.1-78.4-78.4v-588c0-43.3,35.2-78.4,78.4-78.4h156.9c0-43.3,35.1-78.4,78.4-78.4h117.6c43.3,0,78.4,35.1,78.4,78.4h156.9c43.2,0,78.4,35.1,78.4,78.4v588C872.4,798.1,837.3,833.2,794.1,833.2L794.1,833.2L794.1,833.2z M304,754.8c32.5,0,58.9-26.3,58.9-58.8s-26.4-58.9-58.9-58.9c-32.5,0-58.8,26.4-58.8,58.9C245.2,728.5,271.5,754.8,304,754.8L304,754.8z M754.8,205.9H245.2v313.7h509.6V205.9L754.8,205.9z M696,637.2c-32.5,0-58.9,26.4-58.9,58.9c0,32.5,26.4,58.8,58.9,58.8c32.5,0,58.8-26.3,58.8-58.8S728.5,637.2,696,637.2L696,637.2z"/></g>
</svg>